<svg width="1200" height="320" viewBox="0 0 1200 320" fill="none" xmlns="http://www.w3.org/2000/svg">
  <defs>
    <linearGradient id="bg" x1="0" y1="0" x2="1200" y2="320" gradientUnits="userSpaceOnUse">
      <stop stop-color="#EEF2FF"/>
      <stop offset="1" stop-color="#E0F2FE"/>
    </linearGradient>
    <linearGradient id="icon" x1="64" y1="64" x2="256" y2="256" gradientUnits="userSpaceOnUse">
      <stop stop-color="#4F46E5"/>
      <stop offset="1" stop-color="#0EA5E9"/>
    </linearGradient>
    <filter id="shadow" x="0" y="0" width="360" height="360" filterUnits="userSpaceOnUse" color-interpolation-filters="sRGB">
      <feFlood flood-opacity="0" result="BackgroundImageFix"/>
      <feColorMatrix in="SourceAlpha" type="matrix" values="0 0 0 0 0 0 0 0 0 0 0 0 0 0 0 0 0 0 127 0" result="hardAlpha"/>
      <feOffset dy="8"/>
      <feGaussianBlur stdDeviation="10"/>
      <feComposite in2="hardAlpha" operator="out"/>
      <feColorMatrix type="matrix" values="0 0 0 0 0.12 0 0 0 0 0.19 0 0 0 0 0.33 0 0 0 0.2 0"/>
      <feBlend mode="normal" in2="BackgroundImageFix" result="effect1_dropShadow_1_1"/>
      <feBlend mode="normal" in="SourceGraphic" in2="effect1_dropShadow_1_1" result="shape"/>
    </filter>
  </defs>

  <rect width="1200" height="320" rx="24" fill="url(#bg)"/>

  <g filter="url(#shadow)">
    <rect x="64" y="64" width="192" height="192" rx="42" fill="url(#icon)"/>
    <path d="M164 119C145.774 119 131 133.774 131 152C131 170.226 145.774 185 164 185H183V169H164C154.611 169 147 161.389 147 152C147 142.611 154.611 135 164 135H186V119H164Z" fill="white"/>
    <path d="M157 161H191V177H157V161Z" fill="white"/>
    <path d="M160 137H225V153H160V137Z" fill="white" opacity="0.95"/>
    <path d="M214 137C232.226 137 247 151.774 247 170C247 188.226 232.226 203 214 203H194V187H214C223.389 187 231 179.389 231 170C231 160.611 223.389 153 214 153H192V137H214Z" fill="white"/>
  </g>

  <text x="310" y="145" font-family="Segoe UI, Arial, sans-serif" font-size="54" font-weight="700" fill="#111827">
    CooperationCenter
  </text>
  <text x="312" y="188" font-family="Segoe UI, Arial, sans-serif" font-size="24" font-weight="500" fill="#4B5563">
    Survey &amp; Student Collaboration Platform
  </text>

  <g opacity="0.65">
    <circle cx="1070" cy="76" r="8" fill="#4F46E5"/>
    <circle cx="1110" cy="108" r="5" fill="#0EA5E9"/>
    <circle cx="1038" cy="112" r="4" fill="#6366F1"/>
    <path d="M1070 76L1110 108L1038 112" stroke="#4F46E5" stroke-width="2"/>
  </g>
</svg>

